<?xml version="1.0" encoding="UTF-8" standalone="no"?>
<!-- Created with Inkscape (http://www.inkscape.org/) -->

<svg
   width="1735.5345"
   height="160.00002"
   viewBox="0 0 1735.5346 160.00002"
   version="1.1"
   id="svg5"
   sodipodi:docname="logo_full.svg"
   inkscape:version="1.1 (c68e22c387, 2021-05-23)"
   inkscape:export-filename="C:\Users\Anna Lukina\Documents\TUDelft\Outreach\SAIV Conference\logo_draft_small.png"
   inkscape:export-xdpi="34.380989"
   inkscape:export-ydpi="34.380989"
   xmlns:inkscape="http://www.inkscape.org/namespaces/inkscape"
   xmlns:sodipodi="http://sodipodi.sourceforge.net/DTD/sodipodi-0.dtd"
   xmlns="http://www.w3.org/2000/svg"
   xmlns:svg="http://www.w3.org/2000/svg">
  <sodipodi:namedview
     id="namedview7"
     pagecolor="#505050"
     bordercolor="#ffffff"
     borderopacity="1"
     inkscape:pageshadow="0"
     inkscape:pageopacity="0"
     inkscape:pagecheckerboard="1"
     inkscape:document-units="px"
     showgrid="false"
     inkscape:zoom="0.85514885"
     inkscape:cx="623.868"
     inkscape:cy="167.80704"
     inkscape:window-width="1920"
     inkscape:window-height="1017"
     inkscape:window-x="-8"
     inkscape:window-y="-8"
     inkscape:window-maximized="1"
     inkscape:current-layer="text16261"
     fit-margin-top="0"
     fit-margin-left="0"
     fit-margin-right="0"
     fit-margin-bottom="0"
     units="px" />
  <defs
     id="defs2">
    <clipPath
       clipPathUnits="userSpaceOnUse"
       id="clipPath834">
      <path
         d="M 0,7.1700015 H 222.75 V 121.92 H 0 Z"
         id="path832" />
    </clipPath>
    <clipPath
       clipPathUnits="userSpaceOnUse"
       id="clipPath844">
      <path
         d="M 0,0 H 928.125 V 478.125 H 0 Z"
         clip-rule="evenodd"
         id="path842" />
    </clipPath>
    <clipPath
       clipPathUnits="userSpaceOnUse"
       id="clipPath856">
      <path
         d="M 0,0 H 931.25 V 512.5 H 0 Z"
         id="path854" />
    </clipPath>
    <clipPath
       clipPathUnits="userSpaceOnUse"
       id="clipPath862">
      <path
         d="M 0,0 H 928.125 V 478.125 H 0 Z"
         id="path860" />
    </clipPath>
    <clipPath
       clipPathUnits="userSpaceOnUse"
       id="clipPath868">
      <path
         d="M 0,0 H 928.125 V 478.125 H 0 Z"
         id="path866" />
    </clipPath>
    <clipPath
       clipPathUnits="userSpaceOnUse"
       id="clipPath874">
      <path
         d="M 559.66962,94.999969 H 848.83631 V 384.16666 H 559.66962 Z"
         id="path872" />
    </clipPath>
    <clipPath
       clipPathUnits="userSpaceOnUse"
       id="clipPath880">
      <path
         d="m 704.25293,94.999969 20.35602,16.060411 24.32251,-8.984 14.39691,21.5647 25.90845,-1.02813 7.02856,24.95797 24.95776,7.02857 -1.02789,25.90843 21.56464,14.39688 -8.98407,24.32253 16.06048,20.35598 -16.06048,20.35596 8.98407,24.32257 -21.56464,14.39688 1.02789,25.90842 -24.95776,7.02856 -7.02856,24.9578 -25.90845,-1.0279 -14.39691,21.56461 -24.32251,-8.98404 -20.35602,16.06049 -20.35596,-16.06049 -24.32251,8.98404 -14.39691,-21.56461 -25.90845,1.0279 -7.0285,-24.9578 -24.95801,-7.02856 1.02814,-25.90842 -21.5647,-14.39688 8.98401,-24.32257 -16.06042,-20.35596 16.06042,-20.35598 -8.98401,-24.32253 21.5647,-14.39688 -1.02814,-25.90843 24.95801,-7.02857 7.0285,-24.95797 25.90845,1.02813 14.39691,-21.5647 24.32251,8.984 z"
         id="path878" />
    </clipPath>
    <clipPath
       clipPathUnits="userSpaceOnUse"
       id="clipPath892">
      <path
         d="M 0,0 H 928.125 V 478.125 H 0 Z"
         clip-rule="evenodd"
         id="path890" />
    </clipPath>
    <clipPath
       clipPathUnits="userSpaceOnUse"
       id="clipPath906">
      <path
         d="M 0,0 H 931.25 V 512.5 H 0 Z"
         id="path904" />
    </clipPath>
    <clipPath
       clipPathUnits="userSpaceOnUse"
       id="clipPath912">
      <path
         d="M 0,0 H 928.125 V 478.125 H 0 Z"
         id="path910" />
    </clipPath>
    <clipPath
       clipPathUnits="userSpaceOnUse"
       id="clipPath918">
      <path
         d="M 0,0 H 928.125 V 478.125 H 0 Z"
         id="path916" />
    </clipPath>
    <clipPath
       clipPathUnits="userSpaceOnUse"
       id="clipPath924">
      <path
         d="m 609.37988,39.379883 h 307.2583 V 307.24609 h -307.2583 z"
         id="path922" />
    </clipPath>
    <clipPath
       clipPathUnits="userSpaceOnUse"
       id="clipPath930">
      <path
         d="m 627.5,188.125 c 36.875,56.5625 77.5,88.125 76.875,97.8125 -0.3125,3.125 -6.875,6.5625 -7.5,5.9375 -1.5625,-1.25 17.8125,-35.93752 30,-56.25 15.3125,-25.625 34.6875,-57.1875 56.25,-83.4375 22.1875,-27.1875 52.5,-56.25 75.3125,-76.25 16.875,-14.6875 37.1875,-33.75 46.875,-35.3125 3.75,-0.3125 7.1875,1.25 8.4375,3.125 1.25,2.5 -0.3125,9.6875 -2.5,10.9375 -2.1875,1.25 -9.375,-0.9375 -10.625,-3.4375 -0.9375,-2.1875 1.5625,-9.0625 3.75,-10.3125 2.1875,-0.9375 9.0625,2.1875 10,4.375 1.25,2.1875 0,5.3125 -2.5,8.75 -5.625,8.125 -27.5,19.0625 -43.4375,32.8125 -21.5625,19.0625 -51.25,47.5 -72.5,73.75 -20.9375,25.9375 -39.0625,57.5 -54.6875,83.125 -12.8125,21.25 -22.5,54.6875 -32.8125,60 -4.6875,2.5 -8.125,1.5625 -13.75,-1.25 -15,-8.125 -52.5,-57.8125 -66.875,-78.75 -8.4375,-12.5 -18.125,-24.6875 -17.1875,-31.5625 0.3125,-4.0625 5,-8.4375 7.8125,-8.75 2.8125,-0.625 9.0625,4.6875 9.0625,4.6875"
         id="path928" />
    </clipPath>
  </defs>
  <g
     inkscape:groupmode="layer"
     id="layer3"
     inkscape:label="Layer 3"
     transform="translate(-85.76139,-132.733)">
    <rect
       style="fill:#333333;fill-opacity:1;stroke:#00bef1;stroke-width:0"
       id="rect28021"
       width="1735.5345"
       height="134.28224"
       x="85.761391"
       y="158.45078"
       inkscape:export-filename="C:\Users\Anna Lukina\Documents\TUDelft\Outreach\SAIV Conference\logo_draft_large.png"
       inkscape:export-xdpi="99.999245"
       inkscape:export-ydpi="99.999245" />
  </g>
  <g
     inkscape:groupmode="layer"
     id="layer2"
     inkscape:label="Layer 2"
     transform="translate(-85.76139,-132.733)">
    <g
       aria-label="$ymposium on AI   erification"
       id="text16261"
       style="font-size:77.7509px;line-height:1.25;font-family:'Ubuntu Mono';-inkscape-font-specification:'Ubuntu Mono';fill:#f6e7d8;stroke-width:1.0054">
      <path
         d="m 122.13065,247.93568 q 4.26519,0 7.10865,-0.59239 2.96194,-0.71087 4.62063,-1.89564 1.65869,-1.30326 2.36954,-2.96194 0.71088,-1.77716 0.71088,-3.79128 0,-2.96194 -1.42173,-4.97606 -1.42173,-2.13259 -3.90976,-3.6728 -2.36956,-1.65869 -5.44997,-2.84347 -3.08043,-1.30325 -6.39779,-2.48802 -3.1989,-1.18477 -6.39779,-2.6065 -3.08041,-1.42175 -5.56844,-3.43586 -2.36956,-2.1326 -3.90977,-4.97606 -1.5402,-2.96193 -1.5402,-7.22712 0,-7.58257 4.50214,-12.32168 4.50214,-4.73909 13.03254,-6.04235 v -12.20319 h 8.76734 v 11.84775 q 4.73909,0.23697 8.64885,1.18478 4.02824,0.82935 6.39779,1.77717 l -2.01412,8.29343 q -2.48802,-0.94783 -6.2793,-1.89564 -3.79128,-1.0663 -9.59669,-1.0663 -6.39778,0 -9.83363,2.36956 -3.31738,2.36953 -3.31738,6.87169 0,2.48803 0.94782,4.14671 1.0663,1.65868 2.96194,2.96194 1.89565,1.30325 4.38368,2.36955 2.6065,1.0663 5.80539,2.25108 4.02824,1.54021 7.81952,3.31736 3.79128,1.65869 6.63474,4.02824 2.84346,2.36955 4.50216,5.68693 1.77716,3.31737 1.77716,7.938 0,6.99017 -4.62063,11.84776 -4.62062,4.85756 -14.2173,6.04234 v 13.62493 h -8.76734 v -13.2695 q -7.4641,-0.23695 -12.08471,-1.65868 -4.62063,-1.42173 -6.87171,-2.72498 l 2.60651,-8.17495 q 3.1989,1.5402 7.58256,2.96193 4.38368,1.30326 11.01842,1.30326 z"
         id="path857"
         style="stroke-width:1.53204" />
      <path
         d="m 159.80628,268.31382 q 1.0663,0.59238 2.96195,0.94781 2.01411,0.35545 3.67279,0.35545 5.80541,0 9.0043,-2.60651 3.31738,-2.48803 6.04236,-8.29344 -6.63474,-12.55861 -12.44015,-26.8944 -5.80539,-14.45426 -9.59668,-28.79005 h 10.66298 q 1.18478,4.73911 2.72498,10.30755 1.6587,5.44997 3.67281,11.25536 2.01413,5.80541 4.26519,11.72928 2.36955,5.80541 4.97606,11.1369 1.89565,-5.44996 3.55433,-10.78145 1.65868,-5.33149 3.08041,-10.66298 1.42173,-5.44998 2.84346,-11.01843 1.42173,-5.68691 2.96195,-11.96623 h 10.18906 q -3.79128,15.40209 -8.53038,29.85635 -4.62063,14.45426 -9.95212,26.77593 -2.01411,4.7391 -4.38366,8.17494 -2.25108,3.43586 -4.97606,5.68694 -2.72499,2.25106 -6.16084,3.31736 -3.43584,1.0663 -7.81952,1.0663 -2.25106,0 -4.97605,-0.59238 -2.6065,-0.5924 -3.55433,-1.0663 z"
         id="path859"
         style="stroke-width:1.53204" />
      <path
         d="m 217.86007,204.57289 q 7.10865,-2.72498 13.38796,-2.72498 3.43584,0 6.39779,1.0663 3.08041,0.94782 5.21301,3.08041 5.09453,-4.14671 10.89994,-4.14671 2.84345,0 5.33149,1.0663 2.6065,1.0663 4.50214,3.19888 2.01412,2.13261 3.1989,5.33149 1.18478,3.19891 1.18478,7.46409 v 39.0976 h -8.88582 v -39.33455 q 0,-4.26519 -1.89565,-6.51626 -1.89564,-2.25108 -4.7391,-2.25108 -1.42173,0 -2.96193,0.71087 -1.54022,0.71086 -2.84348,2.25108 0.71088,2.72498 0.71088,6.04234 v 17.89012 h -8.88583 V 218.7902 q 0,-4.14671 -1.30325,-6.51627 -1.30325,-2.36955 -5.09454,-2.36955 -2.36953,0 -5.33149,1.0663 v 47.03559 h -8.8858 z"
         id="path861"
         style="stroke-width:1.53204" />
      <path
         d="m 316.67011,230.63795 q 0,-9.59667 -4.50214,-14.80969 -4.50214,-5.33149 -11.72928,-5.33149 -4.02824,0 -6.39779,0.35543 -2.25106,0.35543 -3.55432,0.82935 v 34.71392 q 1.65868,1.54021 4.85757,2.84346 3.1989,1.30325 6.63474,1.30325 3.90976,0 6.63475,-1.5402 2.84346,-1.54021 4.62063,-4.14672 1.77716,-2.72498 2.60651,-6.27931 0.82933,-3.67281 0.82933,-7.938 z m 10.0706,0 q 0,6.27932 -1.65868,11.61081 -1.54021,5.21301 -4.62064,9.00429 -2.96193,3.79129 -7.3456,5.92388 -4.38368,2.1326 -9.95212,2.1326 -4.38366,0 -7.70104,-1.0663 -3.31737,-1.0663 -4.97605,-2.36956 v 21.6814 h -9.83364 v -72.86371 q 3.19888,-0.94781 8.17495,-1.89563 5.09453,-0.94782 11.6108,-0.94782 5.92388,0 10.78145,2.01412 4.85759,2.01411 8.29344,5.80539 3.43584,3.67281 5.33149,9.0043 1.89564,5.33149 1.89564,11.96623 z"
         id="path863"
         style="stroke-width:1.53204" />
      <path
         d="m 385.97927,230.51948 q 0,6.51626 -1.89565,11.84775 -1.77715,5.21302 -5.09453,9.0043 -3.31737,3.79128 -7.938,5.92387 -4.62062,2.01413 -10.07058,2.01413 -5.33149,0 -9.95212,-2.01413 -4.50214,-2.13259 -7.81952,-5.92387 -3.31737,-3.79128 -5.21302,-9.0043 -1.77715,-5.33149 -1.77715,-11.84775 0,-6.51627 1.77715,-11.84776 1.89565,-5.33149 5.21302,-9.0043 3.31738,-3.79128 7.81952,-5.80539 4.62063,-2.1326 9.95212,-2.1326 5.44996,0 10.07058,2.1326 4.62063,2.01411 7.938,5.80539 3.31738,3.67281 5.09453,9.0043 1.89565,5.33149 1.89565,11.84776 z m -10.07059,0 q 0,-9.35973 -4.02824,-14.69122 -4.02824,-5.44996 -10.89993,-5.44996 -6.75324,0 -10.78147,5.44996 -3.90976,5.33149 -3.90976,14.69122 0,9.24125 3.90976,14.69121 4.02823,5.33149 10.78147,5.33149 6.87169,0 10.89993,-5.33149 4.02824,-5.44996 4.02824,-14.69121 z"
         id="path865"
         style="stroke-width:1.53204" />
      <path
         d="m 432.30377,244.26287 q 0,-2.96194 -2.48803,-4.85757 -2.36954,-1.89565 -6.04235,-3.31738 -3.55433,-1.42173 -7.81952,-2.72498 -4.26519,-1.42173 -7.93799,-3.43586 -3.55434,-2.01411 -6.04237,-4.97604 -2.36955,-2.96195 -2.36955,-7.70105 0,-6.63474 5.3315,-11.01842 5.44997,-4.50214 16.94228,-4.50214 4.50216,0 9.24125,0.71087 4.85759,0.59238 8.29344,1.65868 l -1.77717,8.76735 q -0.94781,-0.47392 -2.60651,-0.94783 -1.65868,-0.59239 -3.79128,-0.94782 -2.13259,-0.47391 -4.62062,-0.71086 -2.36955,-0.23697 -4.62063,-0.23697 -12.79557,0 -12.79557,6.99019 0,2.48803 2.36956,4.26519 2.48801,1.65868 6.16082,3.08041 3.67281,1.42173 7.938,2.96195 4.26518,1.42173 7.93799,3.55432 3.67281,2.1326 6.04236,5.21301 2.48803,2.96193 2.48803,7.58257 0,7.46409 -5.80541,11.6108 -5.80539,4.02824 -18.36402,4.02824 -5.68692,0 -10.42602,-0.94783 -4.7391,-0.94782 -9.00429,-2.84346 l 1.89564,-8.88582 q 4.14671,1.89565 8.64887,3.19891 4.62061,1.18477 9.83363,1.18477 13.38796,0 13.38796,-6.75323 z"
         id="path867"
         style="stroke-width:1.53204" />
      <path
         d="m 474.7185,194.50231 q -3.08042,0 -5.3315,-2.13261 -2.25106,-2.1326 -2.25106,-5.80539 0,-3.67281 2.25106,-5.80541 2.25108,-2.13259 5.3315,-2.13259 3.19889,0 5.33149,2.13259 2.25107,2.1326 2.25107,5.80541 0,3.67279 -2.25107,5.80539 -2.1326,2.13261 -5.33149,2.13261 z m -2.48803,16.70532 h -15.87599 v -8.17495 h 25.59115 v 33.76611 q 0,8.17495 2.25107,11.01841 2.25107,2.72498 6.75322,2.72498 3.43584,0 6.27932,-0.82933 2.96193,-0.82935 4.62061,-1.77717 l 1.42173,8.29342 q -0.71085,0.35544 -2.01411,0.94783 -1.30325,0.47392 -3.08042,0.94782 -1.65868,0.4739 -3.79129,0.82935 -2.01411,0.35543 -4.26518,0.35543 -5.21302,0 -8.64886,-1.42173 -3.43585,-1.42173 -5.56846,-4.26521 -2.01411,-2.84346 -2.84345,-6.99017 -0.82934,-4.26519 -0.82934,-9.83363 z"
         id="path869"
         style="stroke-width:1.53204" />
      <path
         d="m 560.02212,256.46607 q -3.1989,0.82933 -8.53039,1.77716 -5.21302,0.94782 -12.32166,0.94782 -6.27932,0 -10.42603,-1.77717 -4.14671,-1.89564 -6.75322,-5.21302 -2.6065,-3.43584 -3.67281,-8.05647 -1.0663,-4.62062 -1.0663,-10.18906 v -30.92265 h 9.71517 v 28.79005 q 0,10.18908 2.96194,14.45426 3.08041,4.26519 10.18907,4.26519 1.54021,0 3.08041,-0.1184 1.65869,-0.11855 3.08041,-0.23695 1.42173,-0.23695 2.48804,-0.35543 1.0663,-0.23697 1.42172,-0.35544 v -46.4432 h 9.83365 z"
         id="path871"
         style="stroke-width:1.53204" />
      <path
         d="m 573.29138,204.57289 q 7.10866,-2.72498 13.38797,-2.72498 3.43584,0 6.39778,1.0663 3.08043,0.94782 5.21301,3.08041 5.09454,-4.14671 10.89995,-4.14671 2.84346,0 5.33149,1.0663 2.60651,1.0663 4.50214,3.19888 2.01413,2.13261 3.1989,5.33149 1.18476,3.19891 1.18476,7.46409 v 39.0976 h -8.8858 v -39.33455 q 0,-4.26519 -1.89565,-6.51626 -1.89564,-2.25108 -4.73909,-2.25108 -1.42173,0 -2.96195,0.71087 -1.54021,0.71086 -2.84346,2.25108 0.71087,2.72498 0.71087,6.04234 v 17.89012 h -8.88582 V 218.7902 q 0,-4.14671 -1.30326,-6.51627 -1.30325,-2.36955 -5.09453,-2.36955 -2.36956,0 -5.33149,1.0663 v 47.03559 h -8.88582 z"
         id="path873"
         style="stroke-width:1.53204" />
      <path
         d="m 741.4106,230.51948 q 0,6.51626 -1.89564,11.84775 -1.77717,5.21302 -5.09453,9.0043 -3.31738,3.79128 -7.938,5.92387 -4.62063,2.01413 -10.0706,2.01413 -5.33149,0 -9.9521,-2.01413 -4.50216,-2.13259 -7.81952,-5.92387 -3.31738,-3.79128 -5.21302,-9.0043 -1.77717,-5.33149 -1.77717,-11.84775 0,-6.51627 1.77717,-11.84776 1.89564,-5.33149 5.21302,-9.0043 3.31736,-3.79128 7.81952,-5.80539 4.62061,-2.1326 9.9521,-2.1326 5.44997,0 10.0706,2.1326 4.62062,2.01411 7.938,5.80539 3.31736,3.67281 5.09453,9.0043 1.89564,5.33149 1.89564,11.84776 z m -10.07059,0 q 0,-9.35973 -4.02825,-14.69122 -4.02823,-5.44996 -10.89993,-5.44996 -6.75322,0 -10.78145,5.44996 -3.90976,5.33149 -3.90976,14.69122 0,9.24125 3.90976,14.69121 4.02823,5.33149 10.78145,5.33149 6.8717,0 10.89993,-5.33149 4.02825,-5.44996 4.02825,-14.69121 z"
         id="path875"
         style="stroke-width:1.53204" />
      <path
         d="m 754.56139,204.57289 q 5.33149,-1.30326 10.54451,-2.01411 5.33149,-0.71087 9.9521,-0.71087 11.01842,0 16.58687,5.68691 5.68691,5.68694 5.68691,18.24555 v 32.2259 h -9.71515 v -30.44873 q 0,-5.33149 -0.94782,-8.64887 -0.94783,-3.31736 -2.72499,-5.09453 -1.65868,-1.89564 -4.14671,-2.60651 -2.36955,-0.71086 -5.21301,-0.71086 -2.36956,0 -5.09454,0.35543 -2.60651,0.23695 -5.09454,0.71087 v 46.4432 h -9.83363 z"
         id="path877"
         style="stroke-width:1.53204" />
      <path
         d="m 912.49149,258.00627 -4.38368,-19.19337 h -28.19765 l -4.26519,19.19337 h -9.95212 q 2.01413,-7.81952 4.50214,-16.94229 2.48803,-9.12277 5.33151,-18.71945 2.96193,-9.59669 6.16082,-19.19337 3.1989,-9.71516 6.75322,-18.4825 h 12.08472 q 3.43584,8.76734 6.51625,18.4825 3.19891,9.59668 5.92389,19.19337 2.84346,9.59668 5.33149,18.71945 2.48803,9.12277 4.50214,16.94229 z m -18.36402,-64.80722 q -2.72498,7.46408 -5.92388,17.29772 -3.19889,9.83363 -6.04235,20.25966 h 23.69551 q -2.72498,-10.66298 -5.92389,-20.49661 -3.08041,-9.95212 -5.80539,-17.06077 z"
         id="path879"
         style="stroke-width:1.53204" />
      <path
         d="m 958.34208,192.96208 v 56.75077 h 14.21731 v 8.29342 h -38.14977 v -8.29342 h 14.21731 v -56.75077 h -14.21731 v -8.29342 h 38.14977 v 8.29342 z"
         id="path881"
         style="stroke-width:1.53204" />
      <path
         d="m 1191.505,201.72943 q 11.1369,0 17.1793,6.99017 6.0423,6.87171 6.0423,20.97053 v 3.43585 h -39.3345 q 0.5924,8.53038 5.5684,13.03254 5.0946,4.38366 14.2173,4.38366 5.2131,0 8.8859,-0.82933 3.6728,-0.82935 5.5684,-1.77717 l 1.3033,8.29342 q -1.7772,0.94783 -6.3978,2.01413 -4.6206,1.0663 -10.4261,1.0663 -7.1086,0 -12.5586,-2.1326 -5.3315,-2.25108 -8.8858,-6.04235 -3.5543,-3.79129 -5.3315,-9.0043 -1.7772,-5.33149 -1.7772,-11.49233 0,-7.34561 2.2511,-12.79558 2.2511,-5.44996 5.9239,-9.00429 3.6728,-3.55432 8.2934,-5.33149 4.6207,-1.77716 9.4782,-1.77716 z m 13.2695,23.45856 q 0,-6.99017 -3.6728,-11.01841 -3.6728,-4.14673 -9.7151,-4.14673 -3.4359,0 -6.2794,1.30326 -2.7249,1.30325 -4.739,3.43585 -2.0142,2.1326 -3.199,4.85759 -1.1847,2.72498 -1.5402,5.56844 z"
         id="path883"
         style="stroke-width:1.53204" />
      <path
         d="m 1232.735,258.00627 v -52.01165 q 12.0847,-4.14671 24.4064,-4.14671 3.7913,0 7.2271,0.35542 3.4359,0.23697 7.5826,1.18478 l -1.7772,8.64887 q -3.7913,-1.0663 -6.7532,-1.30325 -2.8435,-0.35543 -6.2793,-0.35543 -7.2271,0 -14.6912,2.01411 v 45.61386 z"
         id="path885"
         style="stroke-width:1.53204" />
      <path
         d="m 1304.0583,194.50231 q -3.0804,0 -5.3315,-2.13261 -2.2511,-2.1326 -2.2511,-5.80539 0,-3.67281 2.2511,-5.80541 2.2511,-2.13259 5.3315,-2.13259 3.1989,0 5.3315,2.13259 2.251,2.1326 2.251,5.80541 0,3.67279 -2.251,5.80539 -2.1326,2.13261 -5.3315,2.13261 z m -2.488,16.70532 h -15.876 v -8.17495 h 25.5911 v 33.76611 q 0,8.17495 2.2511,11.01841 2.2511,2.72498 6.7532,2.72498 3.4359,0 6.2793,-0.82933 2.962,-0.82935 4.6206,-1.77717 l 1.4218,8.29342 q -0.7109,0.35544 -2.0141,0.94783 -1.3033,0.47392 -3.0805,0.94782 -1.6587,0.4739 -3.7912,0.82935 -2.0142,0.35543 -4.2652,0.35543 -5.2131,0 -8.6489,-1.42173 -3.4359,-1.42173 -5.5684,-4.26521 -2.0142,-2.84346 -2.8435,-6.99017 -0.8293,-4.26519 -0.8293,-9.83363 z"
         id="path887"
         style="stroke-width:1.53204" />
      <path
         d="m 1357.6099,258.00627 v -46.79864 h -11.6108 v -8.17495 h 11.6108 v -4.97606 q 0,-6.39779 1.7772,-10.5445 1.7771,-4.26519 4.6206,-6.8717 2.9619,-2.6065 6.7532,-3.6728 3.9098,-1.0663 8.175,-1.0663 4.2652,0 8.5304,0.94782 4.3836,0.94782 8.1749,2.25108 l -1.7772,8.4119 q -2.6065,-1.30325 -6.5162,-2.25106 -3.9098,-0.94783 -7.938,-0.94783 -2.488,0 -4.7391,0.71086 -2.1326,0.59239 -3.7913,2.25108 -1.6587,1.5402 -2.6065,4.26518 -0.9478,2.60651 -0.9478,6.63475 v 4.85758 h 22.1553 v 8.17495 h -22.1553 v 46.79864 z"
         id="path889"
         style="stroke-width:1.53204" />
      <path
         d="m 1422.5354,194.50231 q -3.0804,0 -5.3315,-2.13261 -2.2511,-2.1326 -2.2511,-5.80539 0,-3.67281 2.2511,-5.80541 2.2511,-2.13259 5.3315,-2.13259 3.1989,0 5.3315,2.13259 2.2511,2.1326 2.2511,5.80541 0,3.67279 -2.2511,5.80539 -2.1326,2.13261 -5.3315,2.13261 z m -2.488,16.70532 h -15.876 v -8.17495 h 25.5911 v 33.76611 q 0,8.17495 2.2511,11.01841 2.2511,2.72498 6.7532,2.72498 3.4359,0 6.2793,-0.82933 2.962,-0.82935 4.6207,-1.77717 l 1.4217,8.29342 q -0.7109,0.35544 -2.0141,0.94783 -1.3033,0.47392 -3.0804,0.94782 -1.6587,0.4739 -3.7913,0.82935 -2.0141,0.35543 -4.2652,0.35543 -5.213,0 -8.6489,-1.42173 -3.4358,-1.42173 -5.5684,-4.26521 -2.0141,-2.84346 -2.8435,-6.99017 -0.8293,-4.26519 -0.8293,-9.83363 z"
         id="path891"
         style="stroke-width:1.53204" />
      <path
         d="m 1462.8175,230.63795 q 0,-7.46409 2.3696,-12.91405 2.3695,-5.44997 6.5163,-9.0043 4.1467,-3.55432 9.5966,-5.21301 5.5684,-1.77716 11.8477,-1.77716 4.0284,0 7.938,0.5924 4.0284,0.4739 8.5305,1.89563 l -2.2512,8.4119 q -3.9096,-1.42173 -7.2271,-1.77716 -3.1988,-0.4739 -6.5163,-0.4739 -4.2651,0 -8.0563,1.18477 -3.7913,1.06629 -6.6349,3.55432 -2.7249,2.36955 -4.3836,6.27931 -1.6587,3.79129 -1.6587,9.24125 0,5.21302 1.5403,9.0043 1.5402,3.67281 4.2651,6.16084 2.8436,2.36954 6.7532,3.55432 3.9098,1.18477 8.6489,1.18477 3.7913,0 7.2272,-0.35543 3.5543,-0.4739 7.7011,-1.89565 l 1.4217,8.17497 q -4.1468,1.5402 -8.4119,2.13258 -4.2653,0.71088 -9.2413,0.71088 -6.6348,0 -12.2033,-1.77718 -5.4499,-1.89563 -9.4781,-5.44996 -3.9098,-3.55432 -6.1609,-8.88581 -2.1326,-5.44998 -2.1326,-12.55863 z"
         id="path893"
         style="stroke-width:1.53204" />
      <path
         d="m 1546.4623,251.0161 q 3.6729,0 6.5163,-0.23697 2.962,-0.23695 4.8576,-0.59238 v -16.34991 q -1.8956,-0.59238 -4.6206,-0.94781 -2.6065,-0.35544 -5.5685,-0.35544 -2.7249,0 -5.3314,0.47392 -2.6066,0.35543 -4.6206,1.42173 -2.0142,1.0663 -3.3175,2.84346 -1.3032,1.65868 -1.3032,4.26519 0,5.33148 3.5543,7.46409 3.6729,2.01412 9.8336,2.01412 z m -0.9478,-49.28667 q 6.1609,0 10.3077,1.5402 4.2651,1.54021 6.8716,4.26519 2.6065,2.725 3.6728,6.63476 1.0662,3.90975 1.0662,8.53038 v 34.35849 q -3.4357,0.5924 -9.1227,1.42173 -5.5685,0.82935 -11.4923,0.82935 -4.5021,0 -8.7674,-0.82935 -4.2651,-0.71086 -7.5824,-2.60651 -3.3175,-2.01411 -5.3315,-5.44996 -2.0142,-3.43586 -2.0142,-8.76735 0,-4.73909 2.0142,-7.93799 2.1325,-3.31737 5.3315,-5.33149 3.3173,-2.01411 7.464,-2.84346 4.2652,-0.94783 8.5303,-0.94783 5.8054,0 11.3739,1.30326 v -2.72499 q 0,-2.48803 -0.5923,-4.73909 -0.4739,-2.36955 -2.0142,-4.26519 -1.4217,-1.89565 -4.0282,-2.96195 -2.488,-1.18478 -6.5162,-1.18478 -5.0946,0 -8.8858,0.71088 -3.7914,0.71085 -5.8054,1.42173 l -1.1848,-8.05648 q 2.014,-0.94782 6.6347,-1.65868 4.739,-0.71087 10.0705,-0.71087 z"
         id="path895"
         style="stroke-width:1.53204" />
      <path
         d="m 1604.2792,203.03268 h 23.2216 v 8.17495 h -23.2216 v 25.59116 q 0,4.14671 0.5924,6.75322 0.5923,2.60651 1.8956,4.26519 1.4218,1.54021 3.5543,2.1326 2.1326,0.59238 5.2131,0.59238 4.2652,0 6.8717,-0.71085 2.6064,-0.71088 4.9761,-1.89565 l 1.4217,8.29342 q -1.6586,0.71087 -5.3315,1.89565 -3.5543,1.18478 -8.8858,1.18478 -6.1609,0 -10.0707,-1.42173 -3.9096,-1.42173 -6.1607,-4.26521 -2.1326,-2.84346 -2.962,-6.99017 -0.8293,-4.26519 -0.8293,-9.83363 v -25.59116 h -11.6108 v -8.17495 h 11.6108 v -15.40209 l 9.7151,-1.65868 z"
         id="path897"
         style="stroke-width:1.53204" />
      <path
         d="m 1659.4895,194.50231 q -3.0804,0 -5.3315,-2.13261 -2.2511,-2.1326 -2.2511,-5.80539 0,-3.67281 2.2511,-5.80541 2.2511,-2.13259 5.3315,-2.13259 3.199,0 5.3315,2.13259 2.2512,2.1326 2.2512,5.80541 0,3.67279 -2.2512,5.80539 -2.1325,2.13261 -5.3315,2.13261 z m -2.488,16.70532 h -15.876 v -8.17495 h 25.5912 v 33.76611 q 0,8.17495 2.2511,11.01841 2.2509,2.72498 6.7532,2.72498 3.4359,0 6.2793,-0.82933 2.962,-0.82935 4.6207,-1.77717 l 1.4217,8.29342 q -0.7109,0.35544 -2.0142,0.94783 -1.3033,0.47392 -3.0804,0.94782 -1.6586,0.4739 -3.7912,0.82935 -2.0142,0.35543 -4.2653,0.35543 -5.213,0 -8.6489,-1.42173 -3.4358,-1.42173 -5.5684,-4.26521 -2.014,-2.84346 -2.8434,-6.99017 -0.8294,-4.26519 -0.8294,-9.83363 z"
         id="path899"
         style="stroke-width:1.53204" />
      <path
         d="m 1748.466,230.51948 q 0,6.51626 -1.8956,11.84775 -1.7771,5.21302 -5.0946,9.0043 -3.3173,3.79128 -7.938,5.92387 -4.6205,2.01413 -10.0705,2.01413 -5.3315,0 -9.9522,-2.01413 -4.5021,-2.13259 -7.8194,-5.92387 -3.3175,-3.79128 -5.2131,-9.0043 -1.7771,-5.33149 -1.7771,-11.84775 0,-6.51627 1.7771,-11.84776 1.8956,-5.33149 5.2131,-9.0043 3.3173,-3.79128 7.8194,-5.80539 4.6207,-2.1326 9.9522,-2.1326 5.45,0 10.0705,2.1326 4.6207,2.01411 7.938,5.80539 3.3175,3.67281 5.0946,9.0043 1.8956,5.33149 1.8956,11.84776 z m -10.0706,0 q 0,-9.35973 -4.0282,-14.69122 -4.0281,-5.44996 -10.8999,-5.44996 -6.7532,0 -10.7814,5.44996 -3.9098,5.33149 -3.9098,14.69122 0,9.24125 3.9098,14.69121 4.0282,5.33149 10.7814,5.33149 6.8718,0 10.8999,-5.33149 4.0282,-5.44996 4.0282,-14.69121 z"
         id="path901"
         style="stroke-width:1.53204" />
      <path
         d="m 1761.6168,204.57289 q 5.3315,-1.30326 10.5444,-2.01411 5.3315,-0.71087 9.9522,-0.71087 11.0183,0 16.5868,5.68691 5.687,5.68694 5.687,18.24555 v 32.2259 h -9.7152 v -30.44873 q 0,-5.33149 -0.9478,-8.64887 -0.9478,-3.31736 -2.725,-5.09453 -1.6587,-1.89564 -4.1468,-2.60651 -2.3695,-0.71086 -5.2129,-0.71086 -2.3696,0 -5.0946,0.35543 -2.6065,0.23695 -5.0945,0.71087 v 46.4432 h -9.8336 z"
         id="path903"
         style="stroke-width:1.53204" />
    </g>
    <path
       sodipodi:type="star"
       style="fill:#008080;fill-opacity:1;stroke:#00bef1;stroke-width:0"
       id="path29973"
       inkscape:flatsided="false"
       sodipodi:sides="16"
       sodipodi:cx="233.29924"
       sodipodi:cy="505.73016"
       sodipodi:r1="56.131725"
       sodipodi:r2="49.339787"
       sodipodi:arg1="0.39530184"
       sodipodi:arg2="0.59165138"
       inkscape:rounded="0"
       inkscape:randomized="0"
       d="m 285.10211,527.34575 -10.84982,5.90281 -1.36537,12.2759 -12.28283,1.30144 -5.95922,10.81895 -11.8459,-3.49806 -9.64583,7.71491 -9.60553,-7.76502 -11.86395,3.43635 -5.90282,-10.84982 -12.2759,-1.36536 -1.30144,-12.28284 -10.81895,-5.95921 3.49806,-11.84591 -7.71491,-9.64582 7.76502,-9.60554 -3.43635,-11.86395 10.84982,-5.90282 1.36537,-12.27589 12.28283,-1.30145 5.95922,-10.81894 11.8459,3.49806 9.64583,-7.71491 9.60553,7.76501 11.86395,-3.43634 5.90282,10.84982 12.2759,1.36536 1.30144,12.28284 10.81895,5.95921 -3.49806,11.8459 7.71491,9.64583 -7.76502,9.60554 z"
       transform="matrix(1.3336857,0,0,1.3336857,765.11499,-466.89026)"
       inkscape:transform-center-x="1.8750845"
       inkscape:transform-center-y="5.3418641"
       inkscape:export-filename="C:\Users\Anna Lukina\Documents\TUDelft\Outreach\SAIV Conference\logo_draft_large.png"
       inkscape:export-xdpi="99.999245"
       inkscape:export-ydpi="99.999245" />
  </g>
  <g
     inkscape:label="Layer 1"
     inkscape:groupmode="layer"
     id="layer1"
     transform="translate(-85.76139,-132.733)">
    <g
       id="g886"
       transform="matrix(0.11288888,0,0,0.11288888,47.006927,122.59716)">
      <g
         id="g888"
         clip-path="url(#clipPath892)">
        <g
           id="g894"
           transform="matrix(3.125,0,0,3.125,99.088547,70.833313)" />
      </g>
    </g>
    <path
       style="fill:#f6e7d8;fill-opacity:1;stroke:#00bef1;stroke-width:0;stroke-miterlimit:4;stroke-dasharray:none"
       id="path6952"
       d="m 1032.7868,219.5744 c 0.8589,0.80672 1.703,1.62953 2.577,2.4201 5.605,5.07011 1.8458,1.43548 7.9923,7.12262 2.4223,2.24128 5.8062,5.49629 8.0976,7.92054 1.0595,1.12107 2.0552,2.30087 3.0827,3.45117 3.2026,3.43828 5.5606,7.50423 8.322,11.27266 3.5993,4.67457 6.1311,6.63555 14.3375,4.30868 2.1487,-0.60933 2.8944,-3.40208 4.3415,-5.10306 5.0746,-11.41684 9.9436,-22.92753 15.7056,-34.0256 2.1095,-4.06287 4.3686,-8.04631 6.5529,-12.06951 9.799,-16.0573 4.8738,-8.2473 14.751,-23.44547 7.3516,-11.3195 -8.6567,-21.71624 -16.0082,-10.3968 v 0 c -10.3425,15.93482 -5.1563,7.69443 -15.5228,24.74368 -2.2991,4.24538 -4.6763,8.44943 -6.8975,12.73604 -5.7076,11.01486 -10.6153,22.40616 -15.5761,33.76735 1.0472,-0.91848 1.759,-2.58356 3.1411,-2.75542 3.4967,-0.43485 7.042,0.48003 10.5181,1.05692 0.2026,0.0347 1.7168,1.97799 0.3109,0.20382 -0.096,-0.12099 -0.1963,-0.23625 -0.2947,-0.35436 -0.8365,-1.11941 -1.5821,-2.28802 -2.3686,-3.44372 -2.1899,-3.21799 -4.5336,-6.32483 -7.1095,-9.24775 -1.2465,-1.38228 -2.4587,-2.79641 -3.7397,-4.14678 -5.746,-6.05679 -12.0606,-11.52309 -18.287,-17.06951 -9.2314,-9.84689 -23.1568,3.20821 -13.9254,13.05498 z"
       inkscape:export-filename="C:\Users\Anna Lukina\Documents\TUDelft\Outreach\SAIV Conference\logo_draft_large.png"
       inkscape:export-xdpi="99.999245"
       inkscape:export-ydpi="99.999245" />
  </g>
</svg>
