<?xml version="1.0" encoding="UTF-8" standalone="no"?>
<!-- Created with Inkscape (http://www.inkscape.org/) -->

<svg
   width="1138.9446mm"
   height="105mm"
   viewBox="0 0 1138.9446 105"
   version="1.1"
   id="svg5"
   sodipodi:docname="logo_draft_large.svg"
   inkscape:version="1.1 (c68e22c387, 2021-05-23)"
   inkscape:export-filename="C:\Users\Anna Lukina\Documents\TUDelft\Outreach\SAIV Conference\logo_draft_small.png"
   inkscape:export-xdpi="34.380989"
   inkscape:export-ydpi="34.380989"
   xmlns:inkscape="http://www.inkscape.org/namespaces/inkscape"
   xmlns:sodipodi="http://sodipodi.sourceforge.net/DTD/sodipodi-0.dtd"
   xmlns="http://www.w3.org/2000/svg"
   xmlns:svg="http://www.w3.org/2000/svg">
  <sodipodi:namedview
     id="namedview7"
     pagecolor="#505050"
     bordercolor="#ffffff"
     borderopacity="1"
     inkscape:pageshadow="0"
     inkscape:pageopacity="0"
     inkscape:pagecheckerboard="1"
     inkscape:document-units="mm"
     showgrid="false"
     inkscape:zoom="0.85514885"
     inkscape:cx="498.74358"
     inkscape:cy="167.80704"
     inkscape:window-width="1920"
     inkscape:window-height="1017"
     inkscape:window-x="1912"
     inkscape:window-y="-8"
     inkscape:window-maximized="1"
     inkscape:current-layer="layer2"
     fit-margin-top="0"
     fit-margin-left="0"
     fit-margin-right="0"
     fit-margin-bottom="0" />
  <defs
     id="defs2">
    <clipPath
       clipPathUnits="userSpaceOnUse"
       id="clipPath834">
      <path
         d="M 0,7.1700015 H 222.75 V 121.92 H 0 Z"
         id="path832" />
    </clipPath>
    <clipPath
       clipPathUnits="userSpaceOnUse"
       id="clipPath844">
      <path
         d="M 0,0 H 928.125 V 478.125 H 0 Z"
         clip-rule="evenodd"
         id="path842" />
    </clipPath>
    <clipPath
       clipPathUnits="userSpaceOnUse"
       id="clipPath856">
      <path
         d="M 0,0 H 931.25 V 512.5 H 0 Z"
         id="path854" />
    </clipPath>
    <clipPath
       clipPathUnits="userSpaceOnUse"
       id="clipPath862">
      <path
         d="M 0,0 H 928.125 V 478.125 H 0 Z"
         id="path860" />
    </clipPath>
    <clipPath
       clipPathUnits="userSpaceOnUse"
       id="clipPath868">
      <path
         d="M 0,0 H 928.125 V 478.125 H 0 Z"
         id="path866" />
    </clipPath>
    <clipPath
       clipPathUnits="userSpaceOnUse"
       id="clipPath874">
      <path
         d="M 559.66962,94.999969 H 848.83631 V 384.16666 H 559.66962 Z"
         id="path872" />
    </clipPath>
    <clipPath
       clipPathUnits="userSpaceOnUse"
       id="clipPath880">
      <path
         d="m 704.25293,94.999969 20.35602,16.060411 24.32251,-8.984 14.39691,21.5647 25.90845,-1.02813 7.02856,24.95797 24.95776,7.02857 -1.02789,25.90843 21.56464,14.39688 -8.98407,24.32253 16.06048,20.35598 -16.06048,20.35596 8.98407,24.32257 -21.56464,14.39688 1.02789,25.90842 -24.95776,7.02856 -7.02856,24.9578 -25.90845,-1.0279 -14.39691,21.56461 -24.32251,-8.98404 -20.35602,16.06049 -20.35596,-16.06049 -24.32251,8.98404 -14.39691,-21.56461 -25.90845,1.0279 -7.0285,-24.9578 -24.95801,-7.02856 1.02814,-25.90842 -21.5647,-14.39688 8.98401,-24.32257 -16.06042,-20.35596 16.06042,-20.35598 -8.98401,-24.32253 21.5647,-14.39688 -1.02814,-25.90843 24.95801,-7.02857 7.0285,-24.95797 25.90845,1.02813 14.39691,-21.5647 24.32251,8.984 z"
         id="path878" />
    </clipPath>
    <clipPath
       clipPathUnits="userSpaceOnUse"
       id="clipPath892">
      <path
         d="M 0,0 H 928.125 V 478.125 H 0 Z"
         clip-rule="evenodd"
         id="path890" />
    </clipPath>
    <clipPath
       clipPathUnits="userSpaceOnUse"
       id="clipPath906">
      <path
         d="M 0,0 H 931.25 V 512.5 H 0 Z"
         id="path904" />
    </clipPath>
    <clipPath
       clipPathUnits="userSpaceOnUse"
       id="clipPath912">
      <path
         d="M 0,0 H 928.125 V 478.125 H 0 Z"
         id="path910" />
    </clipPath>
    <clipPath
       clipPathUnits="userSpaceOnUse"
       id="clipPath918">
      <path
         d="M 0,0 H 928.125 V 478.125 H 0 Z"
         id="path916" />
    </clipPath>
    <clipPath
       clipPathUnits="userSpaceOnUse"
       id="clipPath924">
      <path
         d="m 609.37988,39.379883 h 307.2583 V 307.24609 h -307.2583 z"
         id="path922" />
    </clipPath>
    <clipPath
       clipPathUnits="userSpaceOnUse"
       id="clipPath930">
      <path
         d="m 627.5,188.125 c 36.875,56.5625 77.5,88.125 76.875,97.8125 -0.3125,3.125 -6.875,6.5625 -7.5,5.9375 -1.5625,-1.25 17.8125,-35.93752 30,-56.25 15.3125,-25.625 34.6875,-57.1875 56.25,-83.4375 22.1875,-27.1875 52.5,-56.25 75.3125,-76.25 16.875,-14.6875 37.1875,-33.75 46.875,-35.3125 3.75,-0.3125 7.1875,1.25 8.4375,3.125 1.25,2.5 -0.3125,9.6875 -2.5,10.9375 -2.1875,1.25 -9.375,-0.9375 -10.625,-3.4375 -0.9375,-2.1875 1.5625,-9.0625 3.75,-10.3125 2.1875,-0.9375 9.0625,2.1875 10,4.375 1.25,2.1875 0,5.3125 -2.5,8.75 -5.625,8.125 -27.5,19.0625 -43.4375,32.8125 -21.5625,19.0625 -51.25,47.5 -72.5,73.75 -20.9375,25.9375 -39.0625,57.5 -54.6875,83.125 -12.8125,21.25 -22.5,54.6875 -32.8125,60 -4.6875,2.5 -8.125,1.5625 -13.75,-1.25 -15,-8.125 -52.5,-57.8125 -66.875,-78.75 -8.4375,-12.5 -18.125,-24.6875 -17.1875,-31.5625 0.3125,-4.0625 5,-8.4375 7.8125,-8.75 2.8125,-0.625 9.0625,4.6875 9.0625,4.6875"
         id="path928" />
    </clipPath>
  </defs>
  <g
     inkscape:groupmode="layer"
     id="layer3"
     inkscape:label="Layer 3"
     transform="translate(-85.76139,-132.73301)">
    <rect
       style="fill:#333333;fill-opacity:1;stroke:#00bef1;stroke-width:0"
       id="rect28021"
       width="1138.9446"
       height="88.122719"
       x="85.761391"
       y="149.61029"
       inkscape:export-filename="C:\Users\Anna Lukina\Documents\TUDelft\Outreach\SAIV Conference\logo_draft_large.png"
       inkscape:export-xdpi="99.999245"
       inkscape:export-ydpi="99.999245" />
  </g>
  <g
     inkscape:groupmode="layer"
     id="layer2"
     inkscape:label="Layer 2"
     transform="translate(-85.76139,-132.73301)">
    <text
       xml:space="preserve"
       style="font-style:normal;font-variant:normal;font-weight:normal;font-stretch:normal;font-size:77.7509px;line-height:1.25;font-family:'Ubuntu Mono';-inkscape-font-specification:'Ubuntu Mono';fill:#f6e7d8;fill-opacity:1;stroke:none;stroke-width:1.0054"
       x="91.512756"
       y="214.94359"
       id="text16261"
       inkscape:export-filename="C:\Users\Anna Lukina\Documents\TUDelft\Outreach\SAIV Conference\logo_draft_large.png"
       inkscape:export-xdpi="99.999245"
       inkscape:export-ydpi="99.999245"><tspan
         sodipodi:role="line"
         style="font-style:normal;font-variant:normal;font-weight:normal;font-stretch:normal;font-size:77.7509px;font-family:'Ubuntu Mono';-inkscape-font-specification:'Ubuntu Mono';fill:#f6e7d8;fill-opacity:1;stroke-width:1.0054"
         x="91.512756"
         y="214.94359"
         id="tspan29994">$ymposium on AI   erification</tspan></text>
    <path
       sodipodi:type="star"
       style="fill:#008080;fill-opacity:1;stroke:#00bef1;stroke-width:0"
       id="path29973"
       inkscape:flatsided="false"
       sodipodi:sides="16"
       sodipodi:cx="233.29924"
       sodipodi:cy="505.73016"
       sodipodi:r1="56.131725"
       sodipodi:r2="49.339787"
       sodipodi:arg1="0.39530184"
       sodipodi:arg2="0.59165138"
       inkscape:rounded="0"
       inkscape:randomized="0"
       d="m 285.10211,527.34575 -10.84982,5.90281 -1.36537,12.2759 -12.28283,1.30144 -5.95922,10.81895 -11.8459,-3.49806 -9.64583,7.71491 -9.60553,-7.76502 -11.86395,3.43635 -5.90282,-10.84982 -12.2759,-1.36536 -1.30144,-12.28284 -10.81895,-5.95921 3.49806,-11.84591 -7.71491,-9.64582 7.76502,-9.60554 -3.43635,-11.86395 10.84982,-5.90282 1.36537,-12.27589 12.28283,-1.30145 5.95922,-10.81894 11.8459,3.49806 9.64583,-7.71491 9.60553,7.76501 11.86395,-3.43634 5.90282,10.84982 12.2759,1.36536 1.30144,12.28284 10.81895,5.95921 -3.49806,11.8459 7.71491,9.64583 -7.76502,9.60554 z"
       transform="matrix(0.87523127,0,0,0.87523127,531.5872,-260.76977)"
       inkscape:transform-center-x="1.2305191"
       inkscape:transform-center-y="3.505604"
       inkscape:export-filename="C:\Users\Anna Lukina\Documents\TUDelft\Outreach\SAIV Conference\logo_draft_large.png"
       inkscape:export-xdpi="99.999245"
       inkscape:export-ydpi="99.999245" />
  </g>
  <g
     inkscape:label="Layer 1"
     inkscape:groupmode="layer"
     id="layer1"
     transform="translate(-85.76139,-132.73301)">
    <g
       id="g886"
       transform="matrix(0.11288888,0,0,0.11288888,47.006927,122.59716)">
      <g
         id="g888"
         clip-path="url(#clipPath892)">
        <g
           id="g894"
           transform="matrix(3.125,0,0,3.125,99.088547,70.833313)" />
      </g>
    </g>
    <path
       style="fill:#f6e7d8;fill-opacity:1;stroke:#00bef1;stroke-width:0;stroke-miterlimit:4;stroke-dasharray:none"
       id="path6952"
       d="m 707.24683,189.72267 c 0.56368,0.52941 1.1176,1.06938 1.69116,1.58819 3.67826,3.32726 1.2113,0.94204 5.24497,4.67422 1.58959,1.47084 3.81028,3.60694 5.31399,5.19786 0.69531,0.7357 1.34875,1.50994 2.02308,2.26483 2.10171,2.25637 3.64912,4.92465 5.46127,7.39768 2.36204,3.06769 4.02352,4.35458 9.40902,2.82757 1.41004,-0.39987 1.8994,-2.23261 2.84908,-3.34888 3.33022,-7.4923 6.52551,-15.04619 10.30683,-22.3293 1.38432,-2.66626 2.86686,-5.28039 4.30031,-7.92062 6.43063,-10.5376 3.19844,-5.41229 9.68034,-15.38609 4.82447,-7.42842 -5.68095,-14.25128 -10.50538,-6.8229 v 0 c -6.78726,10.45723 -3.38384,5.04947 -10.18683,16.23804 -1.5088,2.78603 -3.06879,5.54494 -4.52648,8.35803 -3.7456,7.2285 -6.96631,14.70404 -10.22179,22.15982 0.68718,-0.60275 1.1543,-1.69546 2.06135,-1.80824 2.2947,-0.28537 4.62129,0.31502 6.90247,0.6936 0.13299,0.0228 1.12664,1.29806 0.20405,0.13376 -0.0627,-0.0794 -0.12881,-0.15504 -0.19341,-0.23255 -0.54894,-0.73461 -1.03826,-1.50151 -1.5544,-2.25994 -1.43714,-2.11181 -2.9752,-4.15067 -4.6656,-6.06884 -0.81802,-0.90712 -1.61353,-1.83514 -2.45419,-2.72132 -3.77079,-3.97477 -7.91477,-7.56203 -12.00084,-11.20187 -6.05809,-6.46202 -15.19663,2.10539 -9.13855,8.56733 z"
       inkscape:export-filename="C:\Users\Anna Lukina\Documents\TUDelft\Outreach\SAIV Conference\logo_draft_large.png"
       inkscape:export-xdpi="99.999245"
       inkscape:export-ydpi="99.999245" />
  </g>
</svg>
