<?xml version="1.0" encoding="UTF-8" standalone="no"?>
<!-- Created with Inkscape (http://www.inkscape.org/) -->

<svg
   width="63.09137"
   height="30"
   viewBox="0 0 63.09137 29.999998"
   version="1.1"
   id="svg5"
   sodipodi:docname="logo.svg"
   inkscape:version="1.1 (c68e22c387, 2021-05-23)"
   inkscape:export-filename="C:\Users\Anna Lukina\Documents\TUDelft\Outreach\SAIV Conference\logo_draft_small.png"
   inkscape:export-xdpi="99.996346"
   inkscape:export-ydpi="99.996346"
   xmlns:inkscape="http://www.inkscape.org/namespaces/inkscape"
   xmlns:sodipodi="http://sodipodi.sourceforge.net/DTD/sodipodi-0.dtd"
   xmlns="http://www.w3.org/2000/svg"
   xmlns:svg="http://www.w3.org/2000/svg">
  <sodipodi:namedview
     id="namedview7"
     pagecolor="#ffffff"
     bordercolor="#ffffff"
     borderopacity="0"
     inkscape:pageshadow="0"
     inkscape:pageopacity="0"
     inkscape:pagecheckerboard="false"
     inkscape:document-units="px"
     showgrid="false"
     inkscape:zoom="2.4187262"
     inkscape:cx="112.66261"
     inkscape:cy="102.32659"
     inkscape:window-width="1920"
     inkscape:window-height="1017"
     inkscape:window-x="-8"
     inkscape:window-y="-8"
     inkscape:window-maximized="1"
     inkscape:current-layer="text16261"
     fit-margin-top="0"
     fit-margin-left="0"
     fit-margin-right="0"
     fit-margin-bottom="0"
     units="px" />
  <defs
     id="defs2">
    <clipPath
       clipPathUnits="userSpaceOnUse"
       id="clipPath834">
      <path
         d="M 0,7.1700015 H 222.75 V 121.92 H 0 Z"
         id="path832" />
    </clipPath>
    <clipPath
       clipPathUnits="userSpaceOnUse"
       id="clipPath844">
      <path
         d="M 0,0 H 928.125 V 478.125 H 0 Z"
         clip-rule="evenodd"
         id="path842" />
    </clipPath>
    <clipPath
       clipPathUnits="userSpaceOnUse"
       id="clipPath856">
      <path
         d="M 0,0 H 931.25 V 512.5 H 0 Z"
         id="path854" />
    </clipPath>
    <clipPath
       clipPathUnits="userSpaceOnUse"
       id="clipPath862">
      <path
         d="M 0,0 H 928.125 V 478.125 H 0 Z"
         id="path860" />
    </clipPath>
    <clipPath
       clipPathUnits="userSpaceOnUse"
       id="clipPath868">
      <path
         d="M 0,0 H 928.125 V 478.125 H 0 Z"
         id="path866" />
    </clipPath>
    <clipPath
       clipPathUnits="userSpaceOnUse"
       id="clipPath874">
      <path
         d="M 559.66962,94.999969 H 848.83631 V 384.16666 H 559.66962 Z"
         id="path872" />
    </clipPath>
    <clipPath
       clipPathUnits="userSpaceOnUse"
       id="clipPath880">
      <path
         d="m 704.25293,94.999969 20.35602,16.060411 24.32251,-8.984 14.39691,21.5647 25.90845,-1.02813 7.02856,24.95797 24.95776,7.02857 -1.02789,25.90843 21.56464,14.39688 -8.98407,24.32253 16.06048,20.35598 -16.06048,20.35596 8.98407,24.32257 -21.56464,14.39688 1.02789,25.90842 -24.95776,7.02856 -7.02856,24.9578 -25.90845,-1.0279 -14.39691,21.56461 -24.32251,-8.98404 -20.35602,16.06049 -20.35596,-16.06049 -24.32251,8.98404 -14.39691,-21.56461 -25.90845,1.0279 -7.0285,-24.9578 -24.95801,-7.02856 1.02814,-25.90842 -21.5647,-14.39688 8.98401,-24.32257 -16.06042,-20.35596 16.06042,-20.35598 -8.98401,-24.32253 21.5647,-14.39688 -1.02814,-25.90843 24.95801,-7.02857 7.0285,-24.95797 25.90845,1.02813 14.39691,-21.5647 24.32251,8.984 z"
         id="path878" />
    </clipPath>
    <clipPath
       clipPathUnits="userSpaceOnUse"
       id="clipPath892">
      <path
         d="M 0,0 H 928.125 V 478.125 H 0 Z"
         clip-rule="evenodd"
         id="path890" />
    </clipPath>
    <clipPath
       clipPathUnits="userSpaceOnUse"
       id="clipPath906">
      <path
         d="M 0,0 H 931.25 V 512.5 H 0 Z"
         id="path904" />
    </clipPath>
    <clipPath
       clipPathUnits="userSpaceOnUse"
       id="clipPath912">
      <path
         d="M 0,0 H 928.125 V 478.125 H 0 Z"
         id="path910" />
    </clipPath>
    <clipPath
       clipPathUnits="userSpaceOnUse"
       id="clipPath918">
      <path
         d="M 0,0 H 928.125 V 478.125 H 0 Z"
         id="path916" />
    </clipPath>
    <clipPath
       clipPathUnits="userSpaceOnUse"
       id="clipPath924">
      <path
         d="m 609.37988,39.379883 h 307.2583 V 307.24609 h -307.2583 z"
         id="path922" />
    </clipPath>
    <clipPath
       clipPathUnits="userSpaceOnUse"
       id="clipPath930">
      <path
         d="m 627.5,188.125 c 36.875,56.5625 77.5,88.125 76.875,97.8125 -0.3125,3.125 -6.875,6.5625 -7.5,5.9375 -1.5625,-1.25 17.8125,-35.93752 30,-56.25 15.3125,-25.625 34.6875,-57.1875 56.25,-83.4375 22.1875,-27.1875 52.5,-56.25 75.3125,-76.25 16.875,-14.6875 37.1875,-33.75 46.875,-35.3125 3.75,-0.3125 7.1875,1.25 8.4375,3.125 1.25,2.5 -0.3125,9.6875 -2.5,10.9375 -2.1875,1.25 -9.375,-0.9375 -10.625,-3.4375 -0.9375,-2.1875 1.5625,-9.0625 3.75,-10.3125 2.1875,-0.9375 9.0625,2.1875 10,4.375 1.25,2.1875 0,5.3125 -2.5,8.75 -5.625,8.125 -27.5,19.0625 -43.4375,32.8125 -21.5625,19.0625 -51.25,47.5 -72.5,73.75 -20.9375,25.9375 -39.0625,57.5 -54.6875,83.125 -12.8125,21.25 -22.5,54.6875 -32.8125,60 -4.6875,2.5 -8.125,1.5625 -13.75,-1.25 -15,-8.125 -52.5,-57.8125 -66.875,-78.75 -8.4375,-12.5 -18.125,-24.6875 -17.1875,-31.5625 0.3125,-4.0625 5,-8.4375 7.8125,-8.75 2.8125,-0.625 9.0625,4.6875 9.0625,4.6875"
         id="path928" />
    </clipPath>
  </defs>
  <g
     inkscape:groupmode="layer"
     id="layer3"
     inkscape:label="Layer 3">
    <rect
       style="fill:#333333;fill-opacity:1;stroke:#00bef1;stroke-width:0"
       id="rect41791"
       width="44.871494"
       height="21.10224"
       x="5e-07"
       y="6.8226295"
       inkscape:export-filename="C:\Users\Anna Lukina\Documents\TUDelft\Outreach\SAIV Conference\logo_draft_small.png"
       inkscape:export-xdpi="25.363213"
       inkscape:export-ydpi="25.363213" />
  </g>
  <g
     inkscape:groupmode="layer"
     id="layer2"
     inkscape:label="Layer 2">
    <path
       sodipodi:type="star"
       style="fill:#008080;fill-opacity:1;stroke:#00bef1;stroke-width:0"
       id="path29973"
       inkscape:flatsided="false"
       sodipodi:sides="16"
       sodipodi:cx="233.29924"
       sodipodi:cy="505.73016"
       sodipodi:r1="56.131725"
       sodipodi:r2="49.339787"
       sodipodi:arg1="0.39530184"
       sodipodi:arg2="0.59165138"
       inkscape:rounded="0"
       inkscape:randomized="0"
       d="m 285.10211,527.34575 -10.84982,5.90281 -1.36537,12.2759 -12.28283,1.30144 -5.95922,10.81895 -11.8459,-3.49806 -9.64583,7.71491 -9.60553,-7.76502 -11.86395,3.43635 -5.90282,-10.84982 -12.2759,-1.36536 -1.30144,-12.28284 -10.81895,-5.95921 3.49806,-11.84591 -7.71491,-9.64582 7.76502,-9.60554 -3.43635,-11.86395 10.84982,-5.90282 1.36537,-12.27589 12.28283,-1.30145 5.95922,-10.81894 11.8459,3.49806 9.64583,-7.71491 9.60553,7.76501 11.86395,-3.43634 5.90282,10.84982 12.2759,1.36536 1.30144,12.28284 10.81895,5.95921 -3.49806,11.8459 7.71491,9.64583 -7.76502,9.60554 z"
       transform="matrix(0.26722946,0,0,0.26722946,-14.253061,-120.146)"
       inkscape:transform-center-x="0.37569349"
       inkscape:transform-center-y="1.0704171"
       inkscape:export-filename="C:\Users\Anna Lukina\Documents\TUDelft\Outreach\SAIV Conference\logo_draft_small.png"
       inkscape:export-xdpi="25.363213"
       inkscape:export-ydpi="25.363213" />
  </g>
  <g
     inkscape:label="Layer 1"
     inkscape:groupmode="layer"
     id="layer1">
    <g
       id="g886"
       transform="matrix(0.11288888,0,0,0.11288888,47.006927,122.59716)">
      <g
         id="g888"
         clip-path="url(#clipPath892)">
        <g
           id="g894"
           transform="matrix(3.125,0,0,3.125,99.088547,70.833313)" />
      </g>
    </g>
    <g
       aria-label="$ai"
       id="text16261"
       style="font-size:23.7392px;line-height:1.25;font-family:'Ubuntu Mono';-inkscape-font-specification:'Ubuntu Mono';fill:#f6e7d8;stroke-width:0.306973">
      <path
         d="m 6.8201441,22.32143 q 0.8546112,0 1.4243521,-0.118696 0.59348,-0.142435 0.9258288,-0.379827 0.3323488,-0.261131 0.474784,-0.59348 0.1424352,-0.356088 0.1424352,-0.759655 0,-0.59348 -0.2848704,-0.997046 Q 9.2178034,19.04542 8.7192802,18.736811 8.2444962,18.404462 7.6272769,18.16707 7.0100577,17.905939 6.3453601,17.668547 5.7044017,17.431155 5.0634433,17.146284 4.4462241,16.861414 3.9477009,16.457847 3.4729168,16.030542 3.1643072,15.460801 2.8556976,14.867321 2.8556976,14.01271 q 0,-1.519309 0.9020897,-2.468877 0.9020896,-0.949568 2.611312,-1.210699 V 7.887996 h 1.7567009 v 2.37392 q 0.949568,0.04748 1.7329616,0.237392 0.8071332,0.166174 1.2819172,0.356088 L 10.737112,12.51714 Q 10.238589,12.327227 9.4789346,12.137313 8.7192802,11.92366 7.5560593,11.92366 q -1.2819168,0 -1.9703536,0.474784 -0.6646976,0.474784 -0.6646976,1.376874 0,0.498523 0.1899136,0.830872 0.2136528,0.332349 0.59348,0.59348 0.3798272,0.261131 0.8783504,0.474784 0.5222624,0.213653 1.1632208,0.451045 0.8071329,0.308609 1.5667873,0.664697 0.7596548,0.332349 1.3293948,0.807133 0.569741,0.474784 0.90209,1.139482 0.356088,0.664697 0.356088,1.590526 0,1.400613 -0.925829,2.37392 -0.925829,0.973307 -2.8487038,1.210699 v 2.730008 H 6.3690993 v -2.65879 Q 4.8735297,23.935696 3.9477009,23.650825 3.021872,23.365955 2.5708272,23.104824 l 0.5222624,-1.638005 q 0.6409584,0.308609 1.5193089,0.59348 0.8783504,0.261131 2.2077456,0.261131 z"
         id="path956" />
      <path
         d="m 19.211962,22.938649 q 0.735915,0 1.305656,-0.04748 0.59348,-0.04748 0.973307,-0.118696 v -3.27601 q -0.379827,-0.118696 -0.925829,-0.189914 -0.522262,-0.07122 -1.115742,-0.07122 -0.546002,0 -1.068264,0.09496 -0.522262,0.07122 -0.925829,0.28487 -0.403566,0.213653 -0.664697,0.569741 -0.261132,0.332349 -0.261132,0.854611 0,1.068264 0.712176,1.49557 0.735916,0.403566 1.970354,0.403566 z m -0.189914,-9.875507 q 1.234439,0 2.065311,0.308609 0.854611,0.30861 1.376873,0.854612 0.522263,0.546001 0.735916,1.329395 0.213653,0.783393 0.213653,1.709222 v 6.884368 q -0.688437,0.118696 -1.827919,0.284871 -1.115742,0.166174 -2.302702,0.166174 -0.90209,0 -1.756701,-0.166174 -0.854611,-0.142435 -1.519309,-0.522263 -0.664698,-0.403566 -1.068264,-1.092003 -0.403567,-0.688437 -0.403567,-1.756701 0,-0.949568 0.403567,-1.590526 0.427306,-0.664698 1.068264,-1.068264 0.664698,-0.403567 1.49557,-0.569741 0.854611,-0.189914 1.709222,-0.189914 1.163221,0 2.278963,0.261132 v -0.546002 q 0,-0.498523 -0.118696,-0.949568 -0.09496,-0.474784 -0.403566,-0.854611 -0.284871,-0.379827 -0.807133,-0.59348 -0.498523,-0.237392 -1.305656,-0.237392 -1.020786,0 -1.78044,0.142435 -0.759654,0.142435 -1.163221,0.28487 l -0.237392,-1.614265 q 0.403567,-0.189914 1.329395,-0.332349 0.949568,-0.142435 2.017832,-0.142435 z"
         id="path958" />
      <path
         d="m 29.989514,11.61505 q -0.617219,0 -1.068264,-0.427305 -0.451045,-0.427306 -0.451045,-1.163221 0,-0.7359152 0.451045,-1.1632208 0.451045,-0.4273056 1.068264,-0.4273056 0.640959,0 1.068264,0.4273056 0.451045,0.4273056 0.451045,1.1632208 0,0.735915 -0.451045,1.163221 -0.427305,0.427305 -1.068264,0.427305 z m -0.498523,3.347228 h -3.181053 v -1.638005 h 5.127667 v 6.765672 q 0,1.638005 0.451045,2.207746 0.451045,0.546001 1.353135,0.546001 0.688437,0 1.258177,-0.166174 0.59348,-0.166174 0.925829,-0.356088 l 0.284871,1.661744 q -0.142436,0.07122 -0.403567,0.189914 -0.261131,0.09496 -0.617219,0.189913 -0.332349,0.09496 -0.759654,0.166175 -0.403567,0.07122 -0.854612,0.07122 -1.044524,0 -1.732961,-0.28487 -0.688437,-0.284871 -1.115743,-0.854611 -0.403566,-0.569741 -0.569741,-1.400613 -0.166174,-0.854611 -0.166174,-1.970354 z"
         id="path960" />
    </g>
    <path
       style="fill:#f6e7d8;fill-opacity:1;stroke:#00bef1;stroke-width:0;stroke-miterlimit:4;stroke-dasharray:none"
       id="path6952"
       d="m 39.380094,17.400278 c 0.1721,0.162 0.3412,0.326 0.5164,0.485 1.12306,1.0159 0.3698,0.288 1.60142,1.4272 0.4853,0.449 1.16336,1.1012 1.62248,1.587 0.2123,0.225 0.4118,0.461 0.6177,0.692 0.6417,0.689 1.11417,1.5036 1.66746,2.2587 0.7212,0.937 1.22848,1.3295 2.8728,0.863 0.4305,-0.122 0.5799,-0.682 0.8699,-1.0225 1.0168,-2.2876 1.99239,-4.594 3.14691,-6.8177 0.4227,-0.814 0.8753,-1.6122 1.31299,-2.4183 1.96343,-3.2174 0.9766,-1.6525 2.95565,-4.6977995 1.47303,-2.268 -1.73453,-4.3512 -3.20755,-2.0832 v 0 c -2.07232,3.1928995 -1.03317,1.5418 -3.11028,4.9578995 -0.4607,0.851 -0.937,1.693 -1.38205,2.5519 -1.14362,2.2071 -2.12698,4.4895 -3.12096,6.7659 0.2098,-0.184 0.3524,-0.518 0.6294,-0.552 0.7006,-0.09 1.411,0.1 2.1075,0.212 0.041,0.007 0.344,0.396 0.062,0.04 -0.019,-0.02 -0.039,-0.05 -0.059,-0.07 -0.1676,-0.224 -0.317,-0.458 -0.4746,-0.69 -0.4388,-0.645 -0.9084,-1.2673 -1.42452,-1.853 -0.2498,-0.277 -0.4927,-0.56 -0.7493,-0.831 -1.15131,-1.2136 -2.41657,-2.3089 -3.66415,-3.4202 -1.84968,-1.9731 -4.6399,0.643 -2.79022,2.6158 z"
       inkscape:export-filename="C:\Users\Anna Lukina\Documents\TUDelft\Outreach\SAIV Conference\logo_draft_small.png"
       inkscape:export-xdpi="25.363213"
       inkscape:export-ydpi="25.363213" />
  </g>
</svg>
